<svg xmlns="http://www.w3.org/2000/svg" viewBox="0 0 138 109.5"><defs><style>.cls-1,.cls-2,.cls-3{fill:none;}.cls-1,.cls-2,.cls-4{stroke:#414143;stroke-miterlimit:10;}.cls-1{stroke-width:7px;}.cls-2{stroke-width:5px;}.cls-4{fill:#414143;stroke-width:0.25px;}.cls-5{fill:#e88073;}</style></defs><title>Asset 13</title><g id="Layer_2" data-name="Layer 2"><g id="Layer_2-2" data-name="Layer 2"><rect class="cls-1" x="3.5" y="5" width="131" height="101" rx="5" ry="5"/><path class="cls-2" d="M5.5,24h0Z"/><circle class="cls-3" cx="22" cy="3.5" r="3.5"/><path class="cls-4" d="M22,16.47a3.46,3.46,0,0,1-2.47,1A3.5,3.5,0,0,1,16,14a3.5,3.5,0,1,1,6,2.47Zm46,0a3.46,3.46,0,0,1-2.47,1A3.5,3.5,0,0,1,62,14a3.5,3.5,0,1,1,6,2.47ZM4.5,4V23h129V4Zm53,11.5h-30a1.5,1.5,0,0,1,0-3h30a1.5,1.5,0,0,1,0,3Z"/><rect class="cls-4" x="12" y="40.5" width="55" height="5" rx="2" ry="2"/><rect class="cls-4" x="12.5" y="59" width="35" height="5" rx="2" ry="2"/><path class="cls-4" d="M36.07,83H13.93c-.79,0-1.43-.9-1.43-2V80c0-1.1.64-2,1.43-2H36.07c.79,0,1.43.9,1.43,2v1C37.5,82.1,36.86,83,36.07,83Z"/><g id="_1" data-name="1"><path class="cls-5" d="M127.11,8.73a8.25,8.25,0,0,0-11.25,2.63L80.37,67.72c-5.68,1.2-13,5-13.83,16.88-1.21,6.46-8.08,7.75-8.08,7.75,17.77,12.36,32.33-.41,35.23-5.14a13.25,13.25,0,0,0,.93-11.63l35.09-55.73A8,8,0,0,0,127.11,8.73Zm-38,75.65C87,87.45,76.46,95.68,68.27,92a17.54,17.54,0,0,0,2.92-6.67c1.66-12.65,13-13.48,13-13.48l4.62,2.83A7.74,7.74,0,0,1,89.07,84.38Zm2.6-14.28L87,67.27l4.33-6.87L96,63.22ZM125.09,17,98.88,58.64l-4.62-2.83,26.21-41.62a2.75,2.75,0,0,1,3.75-.88A2.66,2.66,0,0,1,125.09,17Z"/></g></g></g></svg>