<svg xmlns="http://www.w3.org/2000/svg" viewBox="0 0 138 108"><defs><style>.cls-1{fill:none;stroke:#414143;stroke-miterlimit:10;stroke-width:7px;}.cls-2{fill:#414143;}.cls-3,.cls-5{fill:#e88073;}.cls-4{font-size:40.74px;font-family:Ubuntu-Bold, Ubuntu;font-weight:700;letter-spacing:-0.05em;}.cls-5{letter-spacing:-0.05em;}</style></defs><title>Asset 16</title><g id="Layer_2" data-name="Layer 2"><g id="Layer_1-2" data-name="Layer 1"><rect class="cls-1" x="3.5" y="3.5" width="131" height="101" rx="5" ry="5"/><line class="cls-1" x1="5.5" y1="22.5" x2="136.5" y2="22.5"/><circle class="cls-2" cx="101" cy="13" r="3.5"/><circle class="cls-3" cx="124" cy="13" r="3.5"/><circle class="cls-2" cx="113" cy="13" r="3.5"/><text class="cls-4" transform="translate(19 73.99) scale(0.8 1)"><tspan class="cls-3">&lt; </tspan><tspan x="28.84" y="0" xml:space="preserve">  </tspan><tspan class="cls-2" x="44.33" y="0" xml:space="preserve">      </tspan><tspan class="cls-5" x="90.77" y="0">/&gt;</tspan></text><g id="Layer_1-3" data-name="Layer 1"><path class="cls-2" d="M53.35,46.86h6.83V66c0,8.63-4.14,11.65-10.75,11.65a17.93,17.93,0,0,1-5-.72l.76-5.53a11.27,11.27,0,0,0,3.51.54c2.88,0,4.68-1.3,4.68-6Z"/><path class="cls-2" d="M66.12,70.15A17.32,17.32,0,0,0,73.72,72c3.15,0,4.81-1.3,4.81-3.33,0-1.84-1.44-3-5.08-4.23-5-1.8-8.36-4.59-8.36-9,0-5.17,4.36-9.08,11.47-9.08a17.73,17.73,0,0,1,7.73,1.53l-1.53,5.49a14.18,14.18,0,0,0-6.3-1.44c-3,0-4.41,1.39-4.41,2.92,0,1.93,1.66,2.79,5.62,4.32,5.35,2,7.82,4.77,7.82,9.08,0,5.08-3.87,9.4-12.19,9.4a19.77,19.77,0,0,1-8.59-1.89Z"/></g></g></g></svg>