<svg xmlns="http://www.w3.org/2000/svg" viewBox="0 0 150 113"><defs><style>.cls-1,.cls-2,.cls-4,.cls-5{fill:none;}.cls-1,.cls-2{stroke:#414143;}.cls-1,.cls-2,.cls-4{stroke-miterlimit:10;}.cls-1{stroke-width:7px;}.cls-2{stroke-width:5px;}.cls-3{fill:#464342;}.cls-4{stroke:#e88073;stroke-width:3px;}</style></defs><title>Asset 15</title><g id="Layer_2" data-name="Layer 2"><g id="Layer_3" data-name="Layer 3"><path class="cls-1" d="M140.5,8.87V98H9.5V8.87a5.2,5.2,0,0,1,5-5.37h121A5.2,5.2,0,0,1,140.5,8.87Z"/><rect class="cls-2" x="2.5" y="103" width="145" height="7.5" rx="2" ry="2"/><path class="cls-3" d="M48.34,50.5A26.17,26.17,0,0,0,63.08,74L50.6,39.85A26.07,26.07,0,0,0,48.34,50.5Zm43.83-1.32A13.78,13.78,0,0,0,90,42c-1.33-2.16-2.57-4-2.57-6.14a4.53,4.53,0,0,1,4.39-4.64l.34,0a26.16,26.16,0,0,0-39.53,4.92l1.68,0c2.74,0,7-.33,7-.33A1.08,1.08,0,0,1,61.46,38s-1.42.17-3,.25L68,66.57,73.72,49.4,69.64,38.23C68.24,38.15,66.9,38,66.9,38a1.08,1.08,0,0,1,.17-2.16s4.32.33,6.89.33c2.74,0,7-.33,7-.33A1.08,1.08,0,0,1,81.1,38s-1.42.17-3,.25l9.45,28.13,2.61-8.72c1.13-3.62,2-6.22,2-8.46ZM75,52.79,67.11,75.6a26.17,26.17,0,0,0,16.08-.42,2.3,2.3,0,0,1-.19-.36l-8-22Zm22.5-14.84a20.08,20.08,0,0,1,.18,2.69,24.68,24.68,0,0,1-2,9.37l-8,23.11a26.17,26.17,0,0,0,9.8-35.17ZM74.5,20A30.5,30.5,0,1,0,105,50.5,30.53,30.53,0,0,0,74.5,20Zm0,59.6a29.1,29.1,0,1,1,29.1-29.1A29.13,29.13,0,0,1,74.5,79.6Z"/><path class="cls-4" d="M130.51,90H20a3.11,3.11,0,0,1-3-3.23v-72a3.11,3.11,0,0,1,3-3.23H130.51a3.11,3.11,0,0,1,3,3.23v72A3.11,3.11,0,0,1,130.51,90Z"/></g><g id="Layer_2-2" data-name="Layer 2"><path class="cls-5" d="M148.5,99.5v8a5,5,0,0,1-5,5H22.5a5,5,0,0,1-5-5v-8Z"/></g></g></svg>