<svg xmlns="http://www.w3.org/2000/svg" viewBox="0 0 138 108"><defs><style>.cls-1{fill:none;stroke:#414143;stroke-miterlimit:10;stroke-width:7px;}.cls-2{fill:#414143;}.cls-3{fill:#e88073;}</style></defs><title>Asset 17</title><g id="Layer_2" data-name="Layer 2"><g id="Layer_4" data-name="Layer 4"><rect class="cls-1" x="3.5" y="3.5" width="131" height="101" rx="5" ry="5"/><path class="cls-2" d="M4.5,6.5v18h130V6.5ZM48,17H6V11H48Zm26,0H54V11H74Zm7.33,2c-6.45,0-6.43-10,0-10S87.77,19,81.33,19ZM131,17H89V11h42Z"/><g id="_Group_" data-name="&lt;Group&gt;"><path id="_Path_" data-name="&lt;Path&gt;" class="cls-3" d="M85.12,47.12q-.57-.93-1.22-1.79c-3.53-4.7-8.28-7.28-13.37-7.27s-9.83,2.61-13.34,7.31q-.64.86-1.21,1.79c2.75,4.37,8.26,7.35,14.58,7.34S82.38,51.49,85.12,47.12Z"/><path id="_Path_2" data-name="&lt;Path&gt;" class="cls-3" d="M98.09,60.11h-9a30.68,30.68,0,0,0-.75-5l7-7.07a2.05,2.05,0,1,0-2.91-2.9L89,48.69a18.14,18.14,0,0,1-4,4.8,21.86,21.86,0,0,1-12.34,5l0,27.68A17.22,17.22,0,0,0,84,79a23.76,23.76,0,0,0,1.48-2.25l7.13,7.11A2.05,2.05,0,0,0,95.47,81l-8.16-8.14a29.77,29.77,0,0,0,1.82-8.63h9a2.05,2.05,0,1,0,0-4.1Z"/><path id="_Path_3" data-name="&lt;Path&gt;" class="cls-3" d="M68.51,58.53a21.86,21.86,0,0,1-12.35-5,18.14,18.14,0,0,1-4-4.78l-3.56-3.55a2.05,2.05,0,1,0-2.9,2.91l7.07,7a30.7,30.7,0,0,0-.73,5H43a2.05,2.05,0,0,0,0,4.1h9a29.77,29.77,0,0,0,1.85,8.63l-8.14,8.16A2.05,2.05,0,0,0,48.64,84l7.11-7.13a23.76,23.76,0,0,0,1.49,2.24,17.22,17.22,0,0,0,11.32,7.13l0-27.68Z"/></g><rect class="cls-2" x="76" y="8" width="11" height="12" rx="5.5" ry="5.5"/></g></g></svg>