<svg xmlns="http://www.w3.org/2000/svg" viewBox="0 0 138 108"><defs><style>.cls-1{fill:none;stroke:#414143;stroke-miterlimit:10;stroke-width:7px;}.cls-2,.cls-3{fill:#e88073;}.cls-3{font-size:12px;font-family:Ubuntu-Bold, Ubuntu;font-weight:700;}</style></defs><title>Asset 18</title><g id="Layer_2" data-name="Layer 2"><g id="Layer_5" data-name="Layer 5"><rect class="cls-1" x="3.5" y="3.5" width="131" height="101" rx="5" ry="5"/><line class="cls-1" x1="5.5" y1="22.5" x2="136.5" y2="22.5"/><path class="cls-2" d="M41.29,60.59,76.73,46c3.5-1.52,15.36-6.39,15.36-6.39s5.48-2.13,5,3c-.15,2.13-1.37,9.58-2.59,17.64l-3.8,23.88s-.3,3.5-2.89,4.11S81,86.14,80.23,85.53c-.61-.46-11.41-7.3-15.36-10.65C63.8,74,62.58,72.15,65,70c5.48-5,12-11.26,16-15.21,1.83-1.83,3.65-6.08-4-.91L55.59,68.35s-2.43,1.52-7,.15-9.89-3.19-9.89-3.19S35.05,63,41.29,60.59Z"/><text class="cls-3" transform="translate(11.5 16)">w w w</text></g></g></svg>